<?xml version="1.0"?>
<svg version="1.1" xmlns="http://www.w3.org/2000/svg" width="195" height="75" style=""><path fill="#9bc9eb" d="M20.904,51.288l0.54,3.024s1.44,0.756,3.528,0.756c2.304,0,4.356-1.008,4.356-2.916c0-4.212-12.168-2.34-12.168-11.232c0-4.968,3.924-7.632,9.144-7.632c4.068,0,7.92,1.44,7.92,1.44l-0.18,6.552l-3.312,0l-0.9-3.06s-1.62-0.54-3.168-0.54c-2.556,0-3.816,1.116-3.816,2.556c0,4.176,12.132,2.52,12.132,10.98c0,5.4-4.176,8.352-9.72,8.352c-4.068,0-8.028-1.368-8.028-1.368l0-6.912l3.672,0z M48.28236,31.2l0,10.548c1.044-0.864,3.384-2.448,6.048-2.448c3.672,0,5.652,2.448,5.652,6.48l0,9.54l2.52,0.9l0,2.88l-9.792,0l0-2.88l1.872-0.864l0-8.712c0-1.8-0.72-2.88-2.376-2.88c-2.016,0-3.924,1.908-3.924,1.908l0,9.648l1.908,0.9l0,2.88l-10.188,0l0-2.88l2.88-0.9l0-20.232l-2.88-0.72l0-2.88z M76.88472,39.3c5.832,0,9.072,3.528,9.072,9.72c0,6.48-3.78,10.44-9.612,10.44c-5.868,0-9.18-3.06-9.18-9.9c0-6.48,3.852-10.26,9.72-10.26z M76.70472,43.62c-2.628,0-3.96,1.44-3.96,5.76c0,3.96,1.152,5.76,3.78,5.76c2.592,0,3.852-1.62,3.852-5.94c0-3.672-1.08-5.58-3.672-5.58z M90.43908,39.84l7.668-0.18l0.324,2.016s2.448-2.376,5.328-2.376c5.004,0,7.488,3.708,7.488,9.54c0,6.66-3.168,10.62-9.468,10.62c-1.044,0-2.124-0.144-3.06-0.36l0,4.572l3.42,0.828l0,2.88l-11.628,0l0-2.88l2.808-0.828l0-20.052l-2.88-0.9l0-2.88z M98.71908,45.6l0,9.18c0.576,0.252,1.44,0.54,2.808,0.54c3.096,0,4.14-2.16,4.14-5.832c0-3.636-0.972-5.868-3.6-5.868c-2.34,0-3.348,1.98-3.348,1.98z M132.18144,43.008l-9,12.132l5.256,0l0.612-3.06l3.24,0l0,7.02l-15.66,0l0-3.312l9.144-12.168l-4.932,0l-0.54,2.628l-3.24,0l0-6.588l15.12,0l0,3.348z M154.6998,50.568l-11.952,0c0.216,2.88,1.872,4.572,4.356,4.572c2.988,0,6.048-1.692,6.048-1.692l1.548,2.988s-3.6,3.024-8.208,3.024c-6.192,0-9.36-3.6-9.36-9.72c0-6.3,3.564-10.44,9.612-10.44c5.364,0,8.172,3.312,8.172,8.46c0,1.368-0.216,2.7-0.216,2.808z M142.8198,47.22l6.516,0c0-2.052-0.864-3.6-2.952-3.6c-2.016,0-3.276,1.476-3.564,3.6z M177.50616,50.568l-11.952,0c0.216,2.88,1.872,4.572,4.356,4.572c2.988,0,6.048-1.692,6.048-1.692l1.548,2.988s-3.6,3.024-8.208,3.024c-6.192,0-9.36-3.6-9.36-9.72c0-6.3,3.564-10.44,9.612-10.44c5.364,0,8.172,3.312,8.172,8.46c0,1.368-0.216,2.7-0.216,2.808z M165.62616,47.22l6.516,0c0-2.052-0.864-3.6-2.952-3.6c-2.016,0-3.276,1.476-3.564,3.6z"/><path fill="#" d=""/></svg>
